<svg width="75" height="22" fill="none" xmlns="http://www.w3.org/2000/svg"><path fill-rule="evenodd" clip-rule="evenodd" d="M11.916 2.386c.59-.003 2.342-.157 3.084 2.292.5 1.65 1.297 4.353 2.39 8.108h.444c1.173-3.959 1.978-6.662 2.416-8.108.75-2.475 2.625-2.292 3.375-2.292h5.786v17.6h-5.897V9.614h-.396l-3.287 10.372h-4.438l-3.287-10.38h-.396v10.38H5.812v-17.6h6.104zm25.964 0v10.38h.47l4-8.535c.776-1.699 2.43-1.845 2.43-1.845h5.708v17.6h-6.02V9.606h-.471l-3.921 8.536c-.776 1.69-2.51 1.844-2.51 1.844H31.86v-17.6h6.021zM71.3 10.75c-.84 2.327-3.478 3.994-6.398 3.994h-6.313v5.242h-5.726V10.75H71.3z" fill="#0F754E"/><path fill-rule="evenodd" clip-rule="evenodd" d="M65.178 2.386H52.562c.3 3.919 3.751 7.273 7.324 7.273h11.81c.682-3.256-1.664-7.273-6.518-7.273z" fill="url(#paint0_linear_38_11)"/><defs><linearGradient id="paint0_linear_38_11" x1="71.813" y1="6.961" x2="52.562" y2="6.961" gradientUnits="userSpaceOnUse"><stop stop-color="#1F5CD7"/><stop offset="1" stop-color="#02AEFF"/></linearGradient></defs></svg>