<svg width="174" height="46" fill="none" xmlns="http://www.w3.org/2000/svg"><g clip-path="url(#clip0_38_24)"><path d="M50.867 21.517l.67-2.14-2.214.07c-.187 0-1.546-.04-2.865-.995.099.01.197.023.297.023 1.357 0 2.67-.817 3.197-1.984l.952-2.11c-1.193.015-2.285-.135-2.285-.135-.01-.002-.87-.112-1.864-1.127-.713-.728-1.596-1.114-2.552-1.114a3.67 3.67 0 00-1.115.177c.05-.17.099-.344.126-.524.304-1.974-.968-3.481-.968-3.48L40.582 6.12l-1.031 2.42c-.004.008-.265.574-.731.852-.14-.711-.486-1.51-1.224-2.276-1.392-1.44-3.087-1.655-3.974-1.655-.41 0-.703.045-.775.056l-2.008.395c.115-.449.362-1.23.813-1.932l1.109-1.727-2.79.318-.889-1.886-1.72.886L25.773 0l-1.587 1.57L22.46.684l-.887 1.886-2.788-.318 1.11 1.727c.452.703.699 1.481.813 1.93l-1.917-.377-.065-.012a5.036 5.036 0 00-.8-.06c-.887 0-2.582.216-3.97 1.655-.74.763-1.085 1.565-1.228 2.276-.463-.274-.721-.833-.721-.833l-1.033-2.433-1.691 2.073c-.207.268-1.226 1.684-.949 3.464.03.178.075.351.126.522a3.648 3.648 0 00-1.113-.177c-.956 0-1.839.386-2.554 1.114-.991 1.011-1.847 1.125-1.84 1.125 0 0-.904.162-2.303.137l.946 2.11c.527 1.17 1.841 1.984 3.197 1.984.102 0 .2-.014.3-.023-1.314.956-2.673.994-2.837.996L0 19.377l.682 2.138c.344 1.103 1.49 2.93 3.689 3.126-.24 1.002-.77 2.123-1.934 2.606l-1.68.692.916 1.593c.517.86 1.73 1.866 3.457 1.866a5.361 5.361 0 001.082-.112c.088.393.2.786.331 1.175.515 1.53.072 2.597.066 2.609l-.83 1.736 1.852.487c.023.008.582.16 1.282.16a3.941 3.941 0 001.527-.299c.239.43.53.821.869 1.172 1.186 1.216 2.865 1.832 4.993 1.832h.008l1.52-.02-3.14 1.303 2.383 1.15c.866.423 1.894.922 2.939 1.303l-.297.813.82.374c.074.033 1.653.74 4.279.89 0 0 .634.029.983.029s.976-.03.976-.03c2.608-.155 4.175-.854 4.249-.889l.823-.376-.3-.815c1.075-.393 2.139-.911 2.968-1.316l2.339-1.134-3.13-1.305 1.526.02c2.13 0 3.811-.617 4.995-1.835.337-.349.628-.74.87-1.17a3.907 3.907 0 001.527.299c.687 0 1.252-.152 1.268-.156l1.858-.491-.81-1.703c-.019-.045-.462-1.11.052-2.642.131-.39.241-.784.33-1.175.35.073.713.112 1.09.112 2.2 0 3.254-1.547 3.458-1.883l.906-1.576-1.68-.69c-1.165-.483-1.694-1.606-1.93-2.606 2.166-.185 3.33-2.012 3.685-3.122zM20.854 6.647l-.023.006.02-.025.003.02z" fill="#fff"/><path d="M25.774 6.553c-1.777.002-3.11.584-3.4 1.268l3.4 1.34 3.401-1.34c-.29-.684-1.621-1.266-3.4-1.268zm.035 35.498h-.068c-1.078.008-2.56-.213-3.276-.422l-.86 2.326c.567.202 2.488.588 4.17.588 1.68 0 3.602-.387 4.167-.588l-.858-2.325c-.717.21-2.198.43-3.275.421zm6.507-2.312c-.64.362-2.069.906-2.9 1.158l.698 1.92c1.286-.35 2.346-.76 3.224-1.2l-1.448-.481.426-1.397zm-13.082 0l.428 1.397-1.45.481c.876.44 1.942.85 3.222 1.2l.698-1.92c-.827-.252-2.258-.798-2.898-1.158zm6.54-35.409c1.34 0 2.655.32 3.665.882.093-.31.222-.686.398-1.08l-.382.047-.401.043-.17-.365-.51-1.079-.932.486-.362.185-.29-.285-1.012-1.002-1.01 1.002-.29.285-.362-.185-.936-.486-.506 1.08-.173.364-.401-.043-.382-.046c.176.395.303.769.397 1.079 1.012-.563 2.323-.883 3.66-.883zM46.23 16.8c.175.06.352.086.527.086.758 0 1.49-.49 1.743-1.05 0 0-1.39-.085-2.884-1.601-.476-.491-.98-.638-1.411-.638-.671 0-1.174.355-1.174.355 1.804.96 2.172 2.5 3.2 2.847zm-41.438.086c.175 0 .352-.027.522-.087 1.031-.346 1.402-1.888 3.206-2.847 0 0-.505-.355-1.172-.355-.434 0-.937.147-1.415.638-1.492 1.516-2.882 1.601-2.882 1.601.248.56.983 1.05 1.74 1.05z" fill="#fff"/><path d="M46.721 23.063c.031.002.058.002.09.002 1.892 0 2.534-2.026 2.534-2.026h-.036c-.347 0-3.16-.08-5.148-2.606-1.309-1.661-2.381-3.122-4.5-3.696l-.208-.036-.046-.212c-.058-.324.164-.627.667-.954 2.923-1.913.939-4.352.939-4.352s-.835 1.951-2.703 1.951l-.139-.002c-.212-.011-.416-.019-.623-.063L37.203 11s.532-1.446-.752-2.776c-.968-1.004-2.145-1.173-2.826-1.173-.343 0-.561.044-.561.044.646.844 1.112 2.243.366 3.106-.644.742-2.217.778-2.217 1.884 0 .468.438 1.015 1.224 1.507 2.366 1.49 4.714 3.464 5.69 6.111 1.22 3.303-.155 5.493-2.117 6.75 0 0 .615.566 1.508.637a5.3 5.3 0 00.524.025c1.883 0 2.857-.882 2.857-.882s-.16 1.22-1.141 2.352c-.904 1.047-2.092 1.661-3.902 1.688 0 0-.058.84.744 1.567.513.458 1.698.608 1.698.608s-2.219.45-2.464 3.725c-.133 1.774-.586 2.39-.586 2.39h.041c5.15 0 5.016-4.413 5.016-4.413s.359 1.306 1.795 1.647c.173.046.359.064.536.064.463 0 .864-.108.864-.108s-.752-1.586-.006-3.804c.619-1.84.519-3.204.519-3.204s.694 1.048 2.413 1.058h.018c1.432 0 2.057-1.085 2.057-1.085-3.434-1.424-3.094-6.02-3.094-6.02s.445.33 1.314.364zm-1.033 4.8c-1.396-.687-2.279-2.513-2.493-3.172-.231 3.622-2.001 6.136-4.07 8.556-1.074 1.254-1.447 2.474-1.447 2.474s.206-1.381 1.135-2.507c1.93-2.318 3.763-5.202 3.9-8.537.095-2.327-.505-4.215-1.44-5.77.522 1.62.45 3.605-1.326 5.456 0 0 3.533-4.233-1.408-8.572-1.978-1.65-4.14-2.67-5.255-3.393 4.025 1.312 5.99-.133 5.99-.133-1.286 1.114-2.95 1.095-3.981.935.28.137.57.28.885.447 3.393 1.842 6.443 4.872 6.963 9.07v-.032c.79 4.121 2.547 5.179 2.547 5.179zM13.25 32.45s1.186-.149 1.699-.61c.8-.726.744-1.566.744-1.566-1.812-.025-2.998-.641-3.908-1.686-.974-1.133-1.136-2.352-1.136-2.352s.974.882 2.856.882c.17 0 .345-.008.526-.025.893-.071 1.51-.638 1.51-.638-1.963-1.256-3.34-3.448-2.121-6.75.977-2.646 3.323-4.623 5.69-6.112.786-.492 1.223-1.037 1.223-1.507 0-1.106-1.571-1.143-2.215-1.884-.746-.863-.278-2.264.366-3.106 0 0-.214-.044-.559-.044-.678 0-1.856.17-2.824 1.173-1.288 1.33-.754 2.776-.754 2.776l-.345.068c-.206.044-.413.052-.623.063l-.137.002c-1.872 0-2.703-1.95-2.703-1.95s-1.983 2.44.937 4.353c.504.327.723.63.666.954l-.047.212-.212.036c-2.115.574-3.188 2.035-4.498 3.696-1.983 2.522-4.792 2.604-5.143 2.604h-.039s.642 2.025 2.534 2.025l.09-.001c.87-.031 1.317-.364 1.317-.364s.335 4.595-3.094 6.02c0 0 .624 1.085 2.057 1.085h.017c1.722-.01 2.414-1.058 2.414-1.058s-.1 1.364.516 3.204c.746 2.218-.002 3.804-.002 3.804s.402.108.862.108c.18 0 .363-.018.534-.064 1.434-.341 1.795-1.647 1.795-1.647s-.131 4.414 5.019 4.414h.036s-.451-.617-.582-2.391c-.247-3.276-2.466-3.725-2.466-3.725zm-.827.797c-2.069-2.42-3.836-4.934-4.07-8.556-.214.657-1.093 2.485-2.489 3.173 0 0 1.755-1.058 2.543-5.18v.034c.523-4.197 3.57-7.23 6.966-9.071.31-.17.605-.312.883-.447-1.032.16-2.696.179-3.982-.935 0 0 1.965 1.445 5.989.133-1.115.723-3.276 1.742-5.254 3.393-4.943 4.339-1.407 8.572-1.407 8.572-1.778-1.854-1.849-3.836-1.327-5.456-.937 1.556-1.534 3.443-1.438 5.77.135 3.335 1.969 6.22 3.895 8.537.93 1.124 1.14 2.507 1.14 2.507s-.377-1.22-1.449-2.474zm9.544-16.936a5.197 5.197 0 01.522.667l.048.071c.087.131.168.266.249.405.742 1.281 1.932 2.046 2.986 2.048 1.057-.002 2.243-.767 2.989-2.048.082-.143.166-.282.252-.41.014-.02.027-.037.039-.056a5.404 5.404 0 01.534-.679c.015-.015.027-.029.04-.04a3.08 3.08 0 011.42-.846l-.263-.152h-.016l-1.044-.607-1.074-.615-2.869 1.561-.008-.006-.005.006-2.871-1.56-1.072.612-1.047.607h-.011l-.266.152a3.08 3.08 0 011.42.842c.018.015.03.033.047.048zm2.645-.125h2.427v.832c-.285-.348-.84-.277-.84-.277v1.2s.02.59.227.846h-1.201c.21-.254.23-.846.23-.846v-1.2s-.554-.071-.843.277v-.832z" fill="#fff"/><path d="M25.526 14.571V9.7l-3.104-1.053.819 4.723 2.285 1.202zm-.668-3.676v.782l-.15-.07c-.007-.005-.227-.055-.613-.36-.636-.493-.648-.947-.648-.947l1.412.595zm3.452 2.474l.815-4.723L26.023 9.7v4.872l2.287-1.202zm-1.62-2.474l1.411-.593s-.011.454-.65.947c-.383.305-.605.355-.612.36l-.15.07v-.784h.001zm-5.554 14.974c.303.11.669.133.856.133l.027-.087c.017-.056.033-.11.045-.171.052-.27.07-.576.075-.773a1.075 1.075 0 01-.407-.43c-.116-.242-.28-.354-.52-.354-.313 0-.648.187-.791.275-.114.673.381 1.284.715 1.407zm6.865-2.587c-.576.626-1.704 1.716-1.76 1.772l-.067.07-3.565-.056a3.62 3.62 0 01-.116.872l-.029.114 4.242.761c.441-.308 1.656-1.194 2.126-1.541-.343-.501-.376-1.095-.299-1.512a2.162 2.162 0 01-.532-.48z" fill="#fff"/><path d="M28.485 18.997c-.822.816-1.61 1.116-2.314 1.185a3.668 3.668 0 01-.387.021h-.018a3.706 3.706 0 01-.77-.08c-.047.183-.105.566.061.928.149.33.451.575.893.736l.148.058.002.16a1.48 1.48 0 001.166 1.372c.186-.19.353-.362.477-.505-.232-.543-.11-1.098.225-1.37-.015.058-.162 1.418.93 1.923l.179.085-.054.19c-.018.058-.382 1.374.939 1.864l.233.088-.104.228c-.023.05-.542 1.244.678 1.922h2.647v-2.1c-.94-.115-1.34-.87-1.442-1.406-.437-.075-.776-.264-1.008-.572-.555-.73-.077-1.4-.071-1.436-.002.006 0 .719.44 1.158.217.212.476.376.867.413l.193.017.017.197c.004.042.11 1.005 1.006 1.157l-.002-4.288c0-.665.195-1.334.428-1.95h-5.359v.005zm-7.124 1.964l-.07 2.733.31.046.76-2.62-.386-.806-.614.647zm8.375 12.531c.023 0 .05.003.075.01.473.134.592 1.837 1.421 1.99.081.017.157.02.222.02.24 0 .382-.102.536-.283 0 0-.416-.655-.729-1.096-.414-.578-.736-1.277-1.507-1.277-.018 0-.04 0-.06.002a.767.767 0 00-.41.136 1.597 1.597 0 00-.868-.264c-.484 0-.86.222-1.047.222h-.008l-1.723-.17c-.27-.024-.482-.296-.56-.402a.732.732 0 01-.028-.046c0-.047 0-.095-.004-.137-.058-1.409-1.15-2.012-1.537-2.021 0 0 .046-.268-.06-.37l-.38.46-1.247-.626.89 1.039-.755.845c-.094.097-.083.228-.044.282l.326.287.412-.25c.021-.016.058-.02.104-.02.114 0 .286.029.44.029.168 0 .314-.037.332-.195-.052.522-.536 1.43-.218 2.143l.235.537-1.523-.22-.713 1.205c-.22.4-.255.834-.043 1.07l.266.333s.374-.397.46-.657l-.122-.133c-.103-.112-.097-.212-.035-.334l.447-.742 1.799.424.094-.162c.122-.202.297-.264.49-.264.08 0 .16.01.245.024a7.77 7.77 0 001.432.154c.604 0 1.201-.108 1.52-.464.651.965 1.972 1.119 1.868 1.608l-.347 1.653c.23-.01.45-.025.66-.054l.33-1.72c.037-.187.072-.44.072-.44-.127-.129-.436-.402-.61-.733-.233-.448-.105-.68-.323-1.262.007.003.073-.131.225-.131zm-6.728-2.417a.154.154 0 01-.148-.165.155.155 0 01.165-.145.157.157 0 01.149.166.158.158 0 01-.166.144z" fill="#fff"/><path d="M20.552 35.056s.596-.245.65-.42l-.08-.199c-.055-.129-.048-.27.06-.347l.644-.445 1.076.206s-.195-.242-.175-.568l-1.026-.218-.968.59a.939.939 0 00-.308 1.117l.127.284zm7.603 2.802c.193-.007.405-.011.638-.011 0 0 .554-1.617.584-1.669-.31-.136-.954-.478-1.203-.634.164.245.563.526.484.742l-.503 1.572z" fill="#fff"/><path d="M33.422 28.27H18.128v5.75c0 2.35 1.702 3.822 4.214 3.822 2.1 0 2.653.08 3.434.855.538-.535.983-.736 1.897-.811l.02-.089.483-1.489c-.027-.033-.816-.928-.816-.928-.312.104-.574.12-1.016.12a8.31 8.31 0 01-1.517-.155.672.672 0 00-.16-.018c-.067 0-.073.006-.09.039l-.097.158-.175.289-.33-.075-1.467-.345-.2.331.03.035.18.197-.08.256c-.107.335-.458.726-.564.834l-.367.393-.333-.422-.25-.314c-.265-.295-.327-.748-.178-1.221a.022.022 0 01-.016.005l-.414.172-.187-.405-.131-.287a1.397 1.397 0 01.464-1.688l1.182-.666 1.124.221c.027-.108.067-.493.1-.591-.02-.002-.042-.008-.063-.008l-.648.24-.625-.43s-.244-.236-.023-.47l.605-.916-1.532-1.923 2.356.967.156-.194.318-.38.36.343c.103.098.16.22.19.341.65.253 1.812.998 1.914 2.21l-.364.146v.01c.082.099.152.139.173.143l1.681.165c.043-.007.097-.026.156-.044.209-.071.523-.173.895-.173.303 0 .595.07.877.2.104-.038.231-.067.378-.077l.08-.002c.901 0 1.348.672 1.707 1.208.06.093.12.181.181.268.314.443.725 1.092.742 1.12l.186.288-.228.264c-.175.203-.438.44-.889.44-.092 0-.194-.01-.304-.031a1.315 1.315 0 01-.268-.081 7.9 7.9 0 01-.049.285l-.294 1.538c1.764-.434 2.884-1.765 2.884-3.669l.002-5.751zm-15.294-.462h11.893c-.594-.613-.586-1.389-.434-1.894a2.031 2.031 0 01-.443-.29c-.465.342-1.884 1.375-2.254 1.633l-.079.054-4.667-.844h-.095a3.92 3.92 0 01-.455-.025.454.454 0 01-.813.162.444.444 0 01-.081-.343l.017-.1c-.482-.34-.925-1.097-.729-1.894l.02-.085.067-.048c.01-.008.09-.062.21-.131l-.339-.052a.235.235 0 01-.193-.266.23.23 0 01.266-.193l.808.127.073-2.843 1.203-1.272.75 1.578-.792 2.736.713.112a.23.23 0 01-.037.459c-.011 0-.024 0-.036-.003l-.58-.094c.007.017.019.027.027.046.061.127.198.22.28.258l3.558.056c.15-.146.524-.512.908-.9a1.921 1.921 0 01-1.247-1.587c-.49-.208-.827-.52-1.014-.927-.228-.503-.147-1.006-.087-1.25-.474-.174-.974-.49-1.483-.994h-5.36c.23.616.425 1.285.425 1.95v6.864z" fill="#FFDD2D"/><path d="M23.027 30.766a.154.154 0 00-.166.144.153.153 0 00.149.166.157.157 0 00.167-.145c0-.085-.061-.164-.15-.165zM33.401 41.19l-.881-.337.243-.91.268-.992s-1.562.846-3.761 1.482c-.625.179-1.098.26-1.098.26v.674s-1.175.204-2.365.204h-.068c-1.189 0-2.365-.204-2.365-.204v-.674s-.474-.081-1.097-.26c-2.2-.636-3.76-1.482-3.76-1.482l.265.992.248.91-.883.337-.979.366c1.124.541 2.68 1.331 4.105 1.72l-.336.917s1.807.823 4.816.831v.002h.042v-.002c3.014-.008 4.818-.83 4.818-.83l-.337-.918c1.424-.389 2.984-1.179 4.102-1.72l-.977-.366zm-15.188.428l1.45-.482-.428-1.397c.638.362 2.07.906 2.9 1.158l-.7 1.92c-1.28-.352-2.347-.762-3.222-1.2zm7.563 2.924c-1.683 0-3.605-.387-4.17-.587l.86-2.326c.713.208 2.198.43 3.275.422h.068c1.078.008 2.558-.214 3.275-.422l.858 2.326c-.565.202-2.485.587-4.166.587zm4.338-1.724l-.698-1.921c.83-.252 2.26-.796 2.9-1.158l-.427 1.397 1.448.481c-.877.438-1.937.848-3.223 1.2zm-4.34-37.927c1.793 0 3.228.594 4.02 1.228 0 0 .235-1.417 1.04-2.667l-1.445.164-.755-1.605-1.452.747-1.407-1.39-1.404 1.39-1.454-.747-.754 1.605-1.444-.164c.804 1.25 1.04 2.667 1.04 2.667.794-.634 2.224-1.228 4.015-1.228zm-3.676-.713l.401.043.174-.364.505-1.08.936.484.363.185.29-.285 1.01-1.002 1.011 1.002.29.285.362-.185.931-.483.511 1.079.17.364.4-.043.383-.046a9.047 9.047 0 00-.398 1.08c-1.01-.563-2.325-.883-3.664-.883-1.334 0-2.648.32-3.662.882a9.22 9.22 0 00-.397-1.079l.384.046zM46.81 23.682c2.319 0 3.094-2.358 3.127-2.458l.258-.831-.87.027h-.003c-.307 0-2.865-.067-4.68-2.372l-.17-.214c-1.187-1.506-2.31-2.938-4.32-3.591a2.02 2.02 0 01.255-.19c1.066-.702 1.687-1.554 1.843-2.542.228-1.487-.72-2.672-.763-2.72l-.646-.798-.403.946c-.027.06-.706 1.574-2.132 1.574H38.2c-.099-.006-.191-.01-.284-.018.05-.676-.073-1.722-1.021-2.703-1.14-1.18-2.54-1.358-3.272-1.358-.392 0-.652.048-.679.052l-.975.193.601.792c.473.61.9 1.738.394 2.327-.163.187-.496.34-.816.491-.657.303-1.554.723-1.554 1.794 0 .694.538 1.418 1.514 2.035 2.888 1.815 4.669 3.709 5.438 5.8 1.19 3.215-.362 5.049-1.87 6.014l-.677.436.592.543c.08.07.804.707 1.874.8.202.013.397.025.578.025.687 0 1.271-.108 1.745-.253-.13.23-.29.463-.493.698-.862.998-1.922 1.453-3.447 1.476l-.567.01-.044.568c-.006.113-.049 1.167.95 2.063.152.139.337.253.53.347-.676.609-1.365 1.668-1.498 3.485-.112 1.517-.474 2.077-.478 2.083l-.626.956 1.131.015c1.87 0 3.303-.516 4.295-1.537a4.872 4.872 0 001.12-1.892 3.042 3.042 0 001.975.724c.528 0 .97-.112 1.02-.123l.723-.193-.32-.674c-.024-.054-.627-1.407.023-3.337.28-.835.422-1.582.491-2.164a3.972 3.972 0 001.853.435c1.79 0 2.578-1.335 2.614-1.39l.353-.613-.654-.27c-2.132-.884-2.604-3.26-2.699-4.547.193.037.413.071.662.079h.108zm1.69 5.036s-.624 1.085-2.057 1.085h-.017c-1.72-.01-2.414-1.058-2.414-1.058s.1 1.364-.52 3.204c-.746 2.218.006 3.804.006 3.804s-.401.108-.864.108a2.1 2.1 0 01-.536-.064c-1.436-.341-1.795-1.647-1.795-1.647s.133 4.414-5.016 4.414h-.04s.452-.617.587-2.391c.245-3.276 2.464-3.724 2.464-3.724s-1.184-.149-1.697-.61c-.802-.726-.746-1.566-.746-1.566 1.813-.025 2.998-.641 3.902-1.688.98-1.133 1.142-2.352 1.142-2.352s-.974.882-2.857.882a5.52 5.52 0 01-.525-.025 2.763 2.763 0 01-1.507-.638c1.96-1.256 3.337-3.448 2.117-6.75-.978-2.646-3.326-4.623-5.69-6.112-.786-.491-1.224-1.037-1.224-1.507 0-1.106 1.573-1.14 2.219-1.884.744-.863.278-2.264-.368-3.106 0 0 .218-.044.56-.044.681 0 1.86.171 2.827 1.173 1.286 1.33.752 2.777.752 2.777l.345.067c.206.044.41.052.623.061l.139.002c1.868 0 2.703-1.951 2.703-1.951s1.985 2.44-.938 4.352c-.503.328-.725.63-.667.954l.047.212.208.036c2.119.575 3.19 2.035 4.5 3.696 1.987 2.526 4.8 2.607 5.147 2.607h.037s-.642 2.025-2.534 2.025c-.03 0-.057 0-.09-.002-.87-.031-1.315-.364-1.315-.364s-.341 4.599 3.092 6.024z" fill="#2C3F4D"/><path d="M42.736 14.498c.865.46 1.368 1.077 1.81 1.624.434.534.846 1.048 1.49 1.262.23.08.472.116.72.116.967 0 1.939-.592 2.307-1.41l.37-.821-.896-.054c-.043-.002-1.196-.106-2.48-1.418-.528-.538-1.166-.821-1.854-.821-.84 0-1.464.42-1.533.462l-.825.58.89.48zm1.469-.902c.431 0 .935.147 1.41.638 1.495 1.516 2.885 1.601 2.885 1.601-.253.559-.985 1.05-1.743 1.05-.175 0-.35-.027-.526-.087-1.028-.346-1.396-1.888-3.203-2.847 0 0 .506-.355 1.177-.355zm-1.065 9.088v.031c-.52-4.196-3.57-7.227-6.963-9.07a26.632 26.632 0 00-.885-.448c1.033.16 2.697.18 3.98-.934 0 0-1.964 1.445-5.99.133 1.115.722 3.28 1.741 5.256 3.393 4.942 4.338 1.406 8.571 1.406 8.571 1.775-1.851 1.849-3.835 1.326-5.456.935 1.555 1.533 3.443 1.44 5.77-.136 3.336-1.97 6.22-3.9 8.538-.927 1.125-1.135 2.506-1.135 2.506s.374-1.22 1.447-2.474c2.069-2.42 3.837-4.934 4.068-8.556.214.657 1.095 2.486 2.493 3.173.004.002-1.752-1.056-2.543-5.177zM16.807 38.212c-.002-.006-.36-.566-.476-2.083-.135-1.816-.821-2.876-1.5-3.485a2.05 2.05 0 00.53-.347c.997-.896.954-1.95.949-2.063l-.039-.569-.57-.01c-1.522-.024-2.584-.479-3.446-1.475a4.554 4.554 0 01-.493-.697 5.947 5.947 0 001.742.252c.186 0 .377-.012.579-.025a3.422 3.422 0 001.876-.8l.592-.543-.677-.436c-1.513-.967-3.06-2.801-1.872-6.015.77-2.09 2.549-3.984 5.44-5.8.976-.616 1.51-1.34 1.51-2.034 0-1.071-.895-1.493-1.552-1.793-.32-.153-.653-.305-.815-.492-.51-.587-.08-1.716.391-2.327l.605-.792-.979-.193c-.029-.004-.285-.052-.679-.052-.732 0-2.128.177-3.27 1.359-.95.982-1.075 2.028-1.027 2.703-.092.007-.185.011-.281.017h-.104c-1.43 0-2.108-1.514-2.135-1.574l-.403-.946-.651.798c-.037.048-.99 1.235-.758 2.72.154.988.775 1.84 1.841 2.541.116.074.197.14.255.191-2.007.653-3.13 2.087-4.315 3.593l-.172.214c-1.812 2.305-4.376 2.372-4.682 2.372l-.874-.027.266.83c.031.1.804 2.459 3.125 2.459l.112-.004a4.07 4.07 0 00.662-.079c-.097 1.285-.57 3.66-2.703 4.547l-.652.27.353.612c.035.056.825 1.392 2.618 1.392a3.98 3.98 0 001.849-.436c.07.582.212 1.33.491 2.164.65 1.93.045 3.283.022 3.337l-.32.674.725.193c.048.011.493.123 1.02.123a3.013 3.013 0 001.974-.724 4.869 4.869 0 001.118 1.892c.994 1.021 2.425 1.537 4.295 1.537l1.134-.015-.629-.954zm-.547.353c-5.15 0-5.019-4.414-5.019-4.414s-.358 1.306-1.795 1.647a2.07 2.07 0 01-.534.064c-.462 0-.861-.108-.861-.108s.748-1.586.001-3.803c-.616-1.84-.516-3.205-.516-3.205s-.692 1.048-2.414 1.058h-.017c-1.433 0-2.057-1.085-2.057-1.085 3.431-1.424 3.094-6.02 3.094-6.02s-.445.33-1.317.364a1.52 1.52 0 01-.09.002C2.84 23.064 2.2 21.04 2.2 21.04h.039c.349 0 3.158-.081 5.146-2.607 1.309-1.661 2.382-3.12 4.497-3.696l.212-.036.047-.212c.057-.324-.162-.626-.665-.954-2.923-1.913-.937-4.352-.937-4.352s.83 1.95 2.702 1.95l.137-.002c.21-.012.419-.02.623-.064l.345-.068s-.534-1.446.754-2.776c.968-1.004 2.146-1.173 2.824-1.173.345 0 .56.044.56.044-.645.844-1.111 2.243-.367 3.106.644.742 2.215.778 2.215 1.884 0 .468-.437 1.016-1.224 1.507-2.366 1.49-4.714 3.466-5.69 6.111-1.218 3.303.157 5.493 2.121 6.752 0 0-.616.566-1.51.637a5.53 5.53 0 01-.525.025c-1.882 0-2.856-.882-2.856-.882s.162 1.22 1.136 2.352c.91 1.047 2.096 1.663 3.908 1.688 0 0 .058.84-.744 1.566-.515.459-1.699.61-1.699.61s2.221.448 2.464 3.724c.133 1.774.582 2.39.582 2.39h-.037z" fill="#2C3F4D"/><path d="M4.791 17.503c.249 0 .492-.037.721-.116.648-.214 1.059-.729 1.492-1.262.444-.547.943-1.164 1.809-1.624l.89-.478-.827-.58c-.069-.044-.69-.463-1.528-.463-.69 0-1.33.282-1.857.821-1.284 1.31-2.435 1.416-2.477 1.418l-.897.052.369.823c.37.815 1.34 1.409 2.305 1.409zm1.142-3.266c.478-.492.98-.638 1.415-.638.667 0 1.172.354 1.172.354-1.805.962-2.175 2.501-3.206 2.848-.17.06-.347.087-.523.087-.757 0-1.49-.49-1.74-1.05 0-.002 1.387-.087 2.882-1.601zm2.905 10.44c-.097-2.328.501-4.216 1.438-5.771-.522 1.62-.451 3.605 1.326 5.457 0 0-3.535-4.233 1.408-8.572 1.978-1.652 4.14-2.67 5.253-3.393-4.023 1.312-5.988-.133-5.988-.133 1.284 1.113 2.948 1.094 3.981.932-.28.137-.572.28-.883.447-3.396 1.844-6.445 4.875-6.967 9.071v-.033c-.789 4.122-2.543 5.18-2.543 5.18 1.396-.689 2.275-2.515 2.489-3.174.233 3.622 2.001 6.137 4.07 8.557 1.073 1.254 1.451 2.473 1.451 2.473s-.21-1.381-1.14-2.506c-1.927-2.314-3.76-5.2-3.895-8.536zm15.773-8.49v.832c.288-.349.843-.277.843-.277v1.2s-.02.59-.23.846h1.202c-.207-.255-.228-.846-.228-.846v-1.2s.555-.072.84.277v-.832h-2.427zm-.516-4.937c.384.305.606.355.613.36l.15.07v-.784l-1.41-.594c0 .002.013.455.647.948zm3.357 0c.638-.493.65-.948.65-.948l-1.412.594v.784l.149-.07c.01-.005.23-.055.613-.36z" fill="#2C3F4D"/><path d="M29.994 8.057c0-1.189-2.003-2.258-4.214-2.258h-.014c-2.211 0-4.214 1.069-4.214 2.258l.044.293.883 5.065-.887.514-2.294 1.34h.008s-.517.263-.756.427c-.873.607-1.058 1.491-.551 1.857.125-.72.696-1.475 1.764-1.475.769 0 1.355.396 1.83.992.12.15.236.31.345.483.132.218.265.409.399.594h-5.91c.434.873.847 1.798.847 2.801V34.02c0 3.164 2.435 4.674 5.068 4.674 2.036 0 2.31-.092 3.434 1.025 1.118-1.12 1.392-1.025 3.43-1.025 2.635 0 5.066-1.51 5.066-4.674V20.95c0-1.004.413-1.93.848-2.802h-5.91a9.6 9.6 0 00.396-.593c.11-.174.224-.334.344-.484.478-.597 1.062-.992 1.831-.992 1.068 0 1.637.753 1.764 1.476.507-.367.324-1.25-.555-1.858-.235-.164-.752-.428-.752-.428h.008l-2.294-1.339-.883-.514.883-5.065.042-.293zm-7.573.59l3.104 1.051v4.873l-2.284-1.204-.82-4.72zm.642 10.35c.51.506 1.009.82 1.483.994-.062.244-.143.75.087 1.252.187.405.526.717 1.014.925a1.92 1.92 0 001.247 1.588c-.384.387-.758.75-.91.9l-3.557-.057a.632.632 0 01-.28-.26c-.007-.017-.019-.027-.024-.046l.58.094a.251.251 0 00.036.002.23.23 0 00.23-.192.232.232 0 00-.193-.266l-.713-.112.792-2.734-.75-1.578-1.203 1.272-.073 2.843-.808-.127c-.125-.025-.245.068-.266.193a.235.235 0 00.193.266l.34.052c-.122.07-.201.123-.211.13l-.07.05-.019.084c-.196.798.249 1.555.73 1.894l-.018.1a.452.452 0 00.08.343.446.446 0 00.373.19c.208 0 .39-.144.441-.354.18.021.343.025.455.025h.095l4.667.842.08-.052c.371-.26 1.788-1.293 2.253-1.634.127.11.27.21.443.293-.15.505-.16 1.281.436 1.894H18.128v-6.86c0-.665-.195-1.334-.424-1.95h5.36v-.005zm5.768 6.277c-.472.347-1.686 1.233-2.126 1.541l-4.241-.76.029-.115c.056-.22.112-.52.115-.872l3.565.057.067-.069c.055-.054 1.184-1.145 1.76-1.773.137.172.309.336.533.48-.077.416-.045 1.01.298 1.51zm-7.1-.734c.1.21.281.35.407.43a4.918 4.918 0 01-.075.772 1.57 1.57 0 01-.045.171l-.027.087a2.73 2.73 0 01-.856-.133c-.333-.123-.83-.734-.715-1.406.145-.089.478-.276.79-.276.242-.002.405.112.521.355zm-.441-.846l.07-2.73.614-.65.386.806-.76 2.62-.31-.046zm7.503 14.153c-.231 0-.445.004-.638.012l.505-1.57c.08-.218-.32-.497-.484-.742.249.156.893.497 1.203.634-.033.05-.586 1.666-.586 1.666zm1.585-1.784l-.33 1.719c-.21.029-.434.044-.663.054l.347-1.653c.104-.492-1.216-.644-1.868-1.61-.318.36-.918.465-1.52.465a7.77 7.77 0 01-1.432-.154 1.577 1.577 0 00-.245-.023c-.193 0-.368.06-.49.264l-.096.162-1.798-.424-.448.74c-.063.12-.067.221.035.333l.121.133c-.082.262-.456.657-.456.657l-.268-.333c-.213-.237-.178-.669.044-1.07l.713-1.204 1.523.22-.237-.54c-.318-.712.166-1.62.218-2.142-.017.158-.162.193-.332.193-.154 0-.326-.03-.44-.03-.044 0-.082.005-.103.02l-.413.25-.326-.287c-.038-.056-.052-.185.045-.281l.753-.844-.89-1.038 1.247.626.38-.46c.104.101.06.37.06.37.39.009 1.48.612 1.538 2.018.004.043.004.091.004.137 0 0 .01.018.029.046.077.106.289.378.559.403l1.724.17h.007c.19 0 .565-.222 1.047-.222.262 0 .555.068.868.264 0 0 .156-.123.41-.137.02-.002.04-.002.06-.002.773 0 1.093.698 1.508 1.278.312.441.728 1.096.728 1.096-.154.183-.297.283-.536.283-.065 0-.14-.005-.221-.02-.83-.153-.949-1.856-1.421-1.991a.26.26 0 00-.075-.01c-.153 0-.22.135-.22.135.216.58.09.815.322 1.262.173.331.482.605.61.734a9 9 0 01-.072.443zm-9.256-1.626l.079.199c-.052.173-.65.42-.65.42l-.129-.282a.937.937 0 01.309-1.117l.967-.59 1.026.218a.907.907 0 00.175.568l-1.075-.206-.644.445c-.108.075-.116.216-.058.345zm9.418 3.25l.295-1.537.048-.285a1.613 1.613 0 00.573.112c.45 0 .713-.237.888-.44l.228-.264-.185-.289a27.29 27.29 0 00-.743-1.12 5.757 5.757 0 01-.18-.267c-.36-.536-.809-1.208-1.709-1.208l-.08.002c-.15.01-.277.038-.379.077a2.042 2.042 0 00-.877-.2c-.372 0-.686.102-.895.173-.06.017-.113.037-.156.044l-1.683-.165c-.02-.004-.09-.044-.173-.145v-.008l.364-.146c-.102-1.212-1.267-1.957-1.916-2.21a.686.686 0 00-.19-.34l-.361-.344-.319.382-.156.194-2.356-.967 1.533 1.923-.605.915c-.222.235.023.47.023.47l.624.43.648-.241c.023 0 .043.006.064.008-.031.098-.072.483-.099.591l-1.123-.221-1.182.666a1.396 1.396 0 00-.465 1.688l.131.287.187.405.413-.172a.037.037 0 00.015-.007c-.148.474-.088.924.177 1.221l.251.316.334.422.366-.393c.108-.108.457-.499.565-.834l.079-.257-.18-.196-.028-.035.2-.331 1.467.345.33.075.175-.29.097-.157c.017-.033.023-.039.09-.039a.74.74 0 01.16.018 8.313 8.313 0 001.518.156c.44 0 .701-.018 1.016-.122 0 0 .788.894.815.929l-.482 1.487-.021.091c-.914.073-1.36.274-1.897.811-.78-.775-1.334-.855-3.434-.855-2.512 0-4.214-1.472-4.214-3.823V28.27h15.292l.004 5.747c.002 1.907-1.118 3.237-2.882 3.67zm3.306-18.69c-.233.616-.428 1.285-.428 1.95l.002 4.288c-.897-.15-1.003-1.115-1.007-1.158l-.017-.196-.193-.018a1.361 1.361 0 01-.865-.414c-.44-.44-.442-1.152-.44-1.158-.005.037-.484.705.072 1.436.233.308.57.497 1.008.572.102.535.501 1.29 1.442 1.406v2.1h-2.645c-1.22-.678-.704-1.872-.679-1.922l.104-.228-.233-.088c-1.32-.49-.958-1.808-.939-1.864l.054-.192-.18-.085c-1.09-.505-.942-1.867-.928-1.923-.336.272-.457.827-.226 1.37-.125.143-.293.316-.476.505a1.48 1.48 0 01-1.164-1.374l-.003-.16-.148-.058c-.441-.163-.744-.408-.893-.738-.167-.364-.108-.745-.061-.928a3.732 3.732 0 00.771.081h.018c.13 0 .26-.008.387-.021.703-.07 1.492-.372 2.313-1.185h5.354v.002zm-4.122-4.336l1.045.607h.016l.262.153a3.08 3.08 0 00-1.42.845l-.04.04a4.68 4.68 0 00-.254.296l-.048.061a4.896 4.896 0 00-.268.378c-.087.129-.17.268-.253.41-.744 1.282-1.932 2.046-2.988 2.048-1.055-.002-2.242-.766-2.986-2.048a8.301 8.301 0 00-.25-.404l-.047-.072a7.982 7.982 0 00-.278-.38 7.321 7.321 0 00-.247-.286c-.017-.014-.029-.031-.046-.046a3.063 3.063 0 00-1.42-.842l.265-.153h.012l1.045-.607 1.073-.614 2.87 1.56.005-.005.008.005 2.868-1.56 1.076.614zM28.31 13.37l-2.286 1.204V9.698l3.102-1.052-.816 4.723zm-2.535-4.206l-3.4-1.343c.288-.684 1.622-1.266 3.4-1.268 1.78.002 3.113.584 3.4 1.268l-3.4 1.343zm42.113 20.39v-7.715h4.528v-2.807H60.063v2.807h4.528v7.715h3.297zm9.034-4.4v-6.122h-3.187v10.522h2.814l5.494-6.123v6.123h3.188V19.032h-2.814l-5.495 6.123zm19.031.487v3.913h3.188V19.032h-3.188v3.846h-5.121v-3.846h-3.188v10.522h3.188V25.64h5.121zm12.063 3.913c.724 0 1.384-.066 2-.243 1.649-.465 2.726-1.813 2.726-3.648 0-1.746-.923-2.962-2.395-3.515-.706-.265-1.54-.287-2.331-.287h-3.276v-2.83h-3.186v10.523h6.462zm-.55-5.217c.44 0 .858 0 1.231.133.528.176.836.619.836 1.15 0 .552-.308 1.016-.814 1.237-.351.155-.703.155-1.253.155h-2.726v-2.675h2.726zm10.99 1.238l3.803 3.979h4.241l-5.297-5.482 5.1-5.04h-4l-3.847 3.956h-.879v-3.956h-3.186v10.522h3.186v-3.98h.879zm14.602-6.83c-4.286 0-6.857 2.43-6.857 5.57 0 3.139 2.571 5.57 6.857 5.57 4.265 0 6.837-2.431 6.837-5.57 0-3.14-2.572-5.57-6.837-5.57zm0 8.576c-2.132 0-3.493-1.282-3.493-3.006 0-1.724 1.361-2.984 3.493-2.984 2.11 0 3.496 1.26 3.496 2.984s-1.386 3.006-3.496 3.006zm17.451-8.886h-3.187v1.06c-4 .09-6.397 1.791-6.397 4.798 0 3.006 2.397 4.576 6.397 4.664v1.061h3.187v-1.061c4.022-.088 6.418-1.658 6.418-4.664 0-3.007-2.396-4.709-6.418-4.797v-1.061zm-3.187 8.267c-2.198-.088-3.166-.995-3.166-2.41 0-1.414.968-2.43 3.166-2.52v4.93zm3.187-4.93c2.221.09 3.166 1.106 3.166 2.52 0 1.415-.945 2.322-3.166 2.41v-4.93zm17.021-3.337h-3.187v1.06c-4 .09-6.395 1.791-6.395 4.798 0 3.006 2.395 4.576 6.395 4.664v1.061h3.187v-1.061c4.024-.088 6.419-1.658 6.419-4.664 0-3.007-2.395-4.709-6.419-4.797v-1.061zm-3.187 8.267c-2.198-.088-3.164-.995-3.164-2.41 0-1.414.966-2.43 3.164-2.52v4.93zm3.187-4.93c2.22.09 3.166 1.106 3.166 2.52 0 1.415-.946 2.322-3.166 2.41v-4.93z" fill="#2C3F4D"/></g><defs><clipPath id="clip0_38_24"><path fill="#fff" d="M0 0h174v46H0z"/></clipPath></defs></svg>