<svg width="40" height="40" fill="none" xmlns="http://www.w3.org/2000/svg"><path d="M32.587 4.995c-.4.03-.795.123-1.166.279h-.005c-.356.141-2.05.854-4.625 1.934l-9.227 3.886c-6.621 2.787-13.13 5.532-13.13 5.532l.077-.03s-.448.148-.917.47a2.51 2.51 0 00-.733.708c-.23.337-.415.854-.346 1.387.113.903.698 1.444 1.118 1.743.425.302.83.444.83.444h.01l6.103 2.056c.274.879 1.86 6.094 2.242 7.295.225.717.443 1.166.717 1.509.133.175.287.32.474.438.097.057.2.101.307.133l-.062-.015c.019.005.034.02.047.025.05.014.084.019.148.029.966.292 1.742-.308 1.742-.308l.044-.035 3.604-3.281 6.04 4.634.137.058c1.259.553 2.534.245 3.208-.297a3.265 3.265 0 00.942-1.245l.044-.113 4.667-23.91c.133-.59.167-1.143.02-1.68a2.259 2.259 0 00-.976-1.308 2.34 2.34 0 00-1.334-.338zm-.126 2.563c-.005.078.01.07-.025.22v.015l-4.623 23.662c-.02.034-.054.108-.147.181-.097.078-.175.127-.581-.035l-7.387-5.663-4.463 4.067.938-5.987 12.07-11.25c.497-.463.33-.56.33-.56.036-.568-.75-.167-.75-.167l-15.22 9.43-.005-.026-7.295-2.456v-.005l-.02-.004a.358.358 0 00.038-.015l.04-.02.039-.014s6.514-2.745 13.135-5.532c3.315-1.396 6.655-2.803 9.224-3.888a992.422 992.422 0 014.575-1.912c.102-.04.053-.04.127-.04v-.001z" fill="#fff"/></svg>