<svg width="17" height="17" viewBox="0 0 17 17" fill="none" xmlns="http://www.w3.org/2000/svg">
<path d="M9.6553 1.29173V1.62323L10.6859 0.592609C10.9431 0.33575 11.2172 0.153 11.4565 0.0640156C11.4034 0.0294844 11.3295 0 11.227 0C10.942 0 10.5377 0.227375 10.1727 0.592609L9.64893 1.11748C9.65185 1.17512 9.6553 1.23356 9.6553 1.29173Z" fill="#1C679A"/>
<path d="M8.43066 1.61952V1.29227C8.43066 0.814141 8.54462 0.311578 8.78713 0.102531C8.71382 0.0393125 8.62962 0 8.53293 0L8.53133 0.00053125L8.52815 0C8.1483 0 7.95758 0.54825 7.92358 1.11377L8.43066 1.61952Z" fill="#1C679A"/>
<path d="M12.07 0.72174C12.0204 0.836507 11.9594 0.94597 11.8878 1.04846C11.8044 1.28433 11.7616 1.57652 11.7616 1.86127L11.7621 4.06649C11.7621 4.17194 11.7693 4.27394 11.7794 4.37435L9.65601 6.49722V7.00988L12.2915 4.37435C12.2809 4.27207 12.2753 4.16932 12.2748 4.06649V1.86127C12.2748 1.38501 12.3885 0.883772 12.6289 0.673928C12.5556 0.609381 12.4703 0.570068 12.372 0.570068C12.2536 0.570068 12.1537 0.629303 12.07 0.72174Z" fill="#1C679A"/>
<path d="M4.62866 5.25645H4.43848L7.09473 7.9127H7.60791L4.93307 5.23785C4.83192 5.24941 4.7302 5.25526 4.6284 5.25539" fill="#1C679A"/>
<path d="M5.75179 1.09015C5.8506 1.24714 5.97784 1.40811 6.12845 1.55819L7.68766 3.1174C7.76284 3.19258 7.84066 3.25819 7.91716 3.3214V6.48845L8.43062 7.00164V3.32114C8.35043 3.2574 8.27381 3.1893 8.20112 3.11714L6.64137 1.55792C6.41771 1.33479 6.23895 1.08829 6.13907 0.864639C5.96827 0.485857 6.07877 0.294076 6.16006 0.213061C6.17874 0.195459 6.19901 0.17963 6.22062 0.165779C6.11968 0.127264 6.02299 0.102295 5.93852 0.102295C5.78924 0.102295 5.69787 0.162857 5.64687 0.213061C5.58631 0.273889 5.50927 0.396342 5.54673 0.613889C5.63837 0.733951 5.7061 0.899967 5.75179 1.09015Z" fill="#1C679A"/>
<path d="M13.1621 11.7326C13.2636 11.7228 13.3658 11.7156 13.467 11.7156H13.144L13.1621 11.7326Z" fill="#1C679A"/>
<path d="M13.1536 5.2474L13.1411 5.26095H13.6153C13.467 5.26095 13.3175 5.24979 13.1746 5.22748L13.1669 5.23492C13.1621 5.2389 13.1576 5.24421 13.1536 5.2474Z" fill="#1C679A"/>
<path d="M13.7324 7.91349H14.2453C14.3088 7.83619 14.376 7.75863 14.4501 7.68399L16.0094 6.12477C16.2657 5.86844 16.5403 5.68569 16.7799 5.59591C16.7112 5.55291 16.6315 5.53094 16.5504 5.53269C16.2657 5.53269 15.8622 5.76006 15.497 6.12477L13.938 7.68399C13.8626 7.75836 13.7956 7.83619 13.7324 7.91349Z" fill="#1C679A"/>
<path d="M16.1101 11.0343L14.5514 9.47566C14.4474 9.37123 14.3513 9.25918 14.264 9.14044H13.7502C13.8368 9.25679 13.9346 9.37047 14.0387 9.47566L15.5971 11.0343C15.9624 11.3993 16.3664 11.6264 16.6511 11.6264C16.7542 11.6264 16.8275 11.5977 16.8817 11.5629C16.6405 11.474 16.3669 11.2912 16.1101 11.0343Z" fill="#1C679A"/>
<path d="M4.91919 11.7486L4.92477 11.7425L4.93965 11.7271L7.52683 9.14093H7.01365L4.43921 11.7151H4.47799C4.62541 11.7151 4.77576 11.7265 4.91919 11.7486Z" fill="#1C679A"/>
<path d="M13.4968 3.1702L13.7285 2.93857C13.9848 2.68171 14.2594 2.49843 14.4996 2.40918C14.4308 2.36587 14.3508 2.3437 14.2695 2.34543C14.056 2.34543 13.7763 2.47373 13.4968 2.68995V3.1702Z" fill="#1C679A"/>
<path d="M0.788007 11.4591C0.76617 11.4452 0.745633 11.4294 0.726648 11.4118C0.429414 11.1146 0.768617 10.5063 1.20796 10.0667L2.13366 9.1415H1.80615C1.18352 9.1415 0.513351 8.94971 0.513351 8.53003C0.513351 8.52949 0.514945 8.52843 0.514945 8.5279C0.514945 8.52737 0.513351 8.52631 0.513351 8.52578C0.513351 8.10609 1.18352 7.91431 1.80562 7.91431H2.13712L1.10702 6.88368C0.66582 6.44407 0.327945 5.83553 0.624914 5.53935C0.640585 5.52368 0.662101 5.50774 0.686273 5.49154C0.58507 5.45382 0.488382 5.42859 0.403117 5.42859C0.254367 5.42859 0.16246 5.48915 0.112257 5.53935C-0.184711 5.83553 0.153164 6.44407 0.59357 6.88368L1.62419 7.91431H1.29243C0.67007 7.91431 0.000694892 8.10609 0.000694892 8.52578L0.00175739 8.5279L0.000694892 8.53003C0.000694892 8.94971 0.670867 9.1415 1.29296 9.1415H1.62074L0.69557 10.0667C0.255429 10.5063 -0.0824457 11.1146 0.213992 11.4118C0.264461 11.462 0.355835 11.522 0.505648 11.522C0.590117 11.522 0.686804 11.4963 0.788007 11.4591Z" fill="#1C679A"/>
<path d="M8.43066 15.7622V15.4307L7.92358 15.9367C7.95679 16.5035 8.14804 17.0539 8.52815 17.0539V17.0534L8.53027 17.0539C8.62696 17.0539 8.71116 17.0146 8.78447 16.9514C8.54169 16.7423 8.42801 16.2403 8.42801 15.7622" fill="#1C679A"/>
<path d="M6.05436 16.9426C5.75819 16.6462 6.09579 16.0379 6.53594 15.5972L8.09515 14.0388C8.20486 13.9288 8.31722 13.8364 8.43037 13.7546V13.7373V9.96997L7.91692 10.4834V13.7538C7.80456 13.8359 7.69114 13.928 7.5817 14.038L6.02301 15.5964C5.58234 16.0371 5.24394 16.6454 5.54144 16.9418C5.5919 16.9926 5.68381 17.0531 5.83309 17.0531C5.91756 17.0531 6.01478 17.0274 6.11519 16.9891C6.09331 16.9756 6.07293 16.9599 6.05436 16.9421" fill="#1C679A"/>
<path d="M10.5817 16.3598L9.65674 15.4349V15.7619C9.65674 15.8214 9.65303 15.8812 9.65063 15.9407L10.0687 16.3598C10.4337 16.7248 10.838 16.9519 11.123 16.9519C11.2255 16.9519 11.2996 16.9232 11.353 16.8884C11.1129 16.7989 10.838 16.6167 10.5817 16.3598Z" fill="#1C679A"/>
<path d="M12.2745 15.2575V13.0528C12.2745 12.9057 12.2861 12.7553 12.3087 12.6127L12.2997 12.6042C12.296 12.5999 12.292 12.5965 12.2883 12.5928L9.65698 9.96094V10.4736L11.7756 12.593C11.7788 12.5967 11.783 12.6002 11.7868 12.6044L11.7955 12.6129C11.7733 12.7586 11.7621 12.9057 11.7621 13.0531V15.2578C11.7621 15.5457 11.8051 15.8403 11.8912 16.0783C11.9111 16.1157 11.9326 16.1529 11.9485 16.1888C11.9642 16.2233 11.9748 16.2539 11.9857 16.2852C12.0819 16.4459 12.2096 16.5495 12.373 16.5495C12.4713 16.5495 12.5563 16.5102 12.6293 16.4454C12.3881 16.2358 12.2745 15.734 12.2745 15.2575Z" fill="#1C679A"/>
<path d="M13.7303 14.0351L13.4966 13.8011V14.2819C13.7776 14.4994 14.0571 14.6282 14.2714 14.6282C14.3739 14.6282 14.4478 14.599 14.5009 14.5642C14.2608 14.4752 13.9867 14.292 13.7303 14.0351Z" fill="#1C679A"/>
<path d="M1.90917 5.25646H2.42129C1.79973 5.25646 1.13062 5.06627 1.12956 4.64658C1.12956 4.22663 1.79973 4.03564 2.42129 4.03564H1.90917C1.28654 4.03564 0.617432 4.22689 0.617432 4.64658C0.617432 5.06627 1.28654 5.25646 1.90917 5.25646Z" fill="#1C679A"/>
<path d="M4.36529 2.9351L4.59957 3.16939V1.71163C4.59957 1.2351 4.71352 0.733338 4.95471 0.52376C4.8806 0.459213 4.79613 0.420166 4.69732 0.420166C4.27816 0.420166 4.08691 1.08901 4.08691 1.71137V2.68781C4.18015 2.76112 4.27418 2.84373 4.36529 2.9351Z" fill="#1C679A"/>
<path d="M4.59573 15.1132V13.8053L4.36384 14.0364C4.27553 14.1255 4.18148 14.2087 4.08228 14.2855V15.1132C4.08228 15.7359 4.27353 16.405 4.69374 16.405C4.7567 16.405 4.85232 16.3845 4.94901 16.3008C4.70809 16.091 4.59573 15.5898 4.59573 15.1132Z" fill="#1C679A"/>
<path d="M3.21665 4.03533H3.7293L3.49821 3.8037C3.14519 3.45122 2.86363 2.99302 2.91623 2.67161C2.91761 2.65571 2.92082 2.64003 2.92579 2.62486C2.93004 2.60547 2.93588 2.58608 2.94359 2.56722C2.96351 2.52153 2.98874 2.4878 3.01291 2.46256C3.01451 2.46097 3.01451 2.4623 3.0161 2.45831C3.01663 2.45725 3.01823 2.45672 3.01637 2.45513H3.01743C3.0331 2.43919 3.05462 2.42299 3.07879 2.40731C2.97679 2.37013 2.8801 2.34436 2.79616 2.34436C2.64582 2.34436 2.55444 2.40439 2.50398 2.45513H2.50344C2.50265 2.45699 2.50318 2.45725 2.49973 2.45831C2.49866 2.45991 2.49866 2.46124 2.49787 2.46256C2.46871 2.49304 2.44523 2.52848 2.42854 2.56722C2.42004 2.58608 2.41526 2.60547 2.41074 2.62486C2.40569 2.6392 2.40357 2.65488 2.40065 2.67188C2.34912 2.99328 2.63015 3.45149 2.9821 3.80397L3.21426 4.03533" fill="#1C679A"/>
<path d="M0.98198 12.325C0.98198 11.9053 1.65136 11.7146 2.27371 11.7146H1.76053C1.1387 11.7146 0.468262 11.9053 0.468262 12.325C0.468262 12.7447 1.13843 12.9359 1.76053 12.9359H2.27371C1.65136 12.9359 0.98198 12.7447 0.98198 12.325Z" fill="#1C679A"/>
<path d="M3.01812 14.5188L3.01759 14.5172C3.01706 14.5166 3.01547 14.5156 3.01733 14.5151C2.98438 14.4814 2.95831 14.4416 2.94056 14.3979C2.94003 14.3976 2.94029 14.3926 2.93737 14.3897C2.91988 14.3438 2.91028 14.2953 2.90895 14.2462V14.2446C2.90417 14.1464 2.92542 14.0223 2.99608 13.864C3.09648 13.6398 3.27498 13.3936 3.49837 13.1702L3.73265 12.9359H3.22L2.98572 13.1702C2.76206 13.3936 2.58436 13.6401 2.48342 13.864C2.41197 14.0223 2.39205 14.1461 2.3963 14.2446V14.2462C2.39948 14.3028 2.40931 14.3504 2.42365 14.3897C2.42558 14.3921 2.42703 14.3949 2.4279 14.3979C2.44942 14.4502 2.47837 14.4893 2.50467 14.5151C2.50573 14.5156 2.50573 14.5166 2.50679 14.5172C2.50786 14.5182 2.50786 14.5182 2.50786 14.5188C2.55859 14.569 2.6497 14.629 2.80004 14.629C2.88398 14.629 2.98067 14.6038 3.08267 14.5661C3.06054 14.5522 3.03974 14.5364 3.02051 14.5188" fill="#1C679A"/>
</svg>
