<svg width="15" height="15" viewBox="0 0 15 15" fill="none" xmlns="http://www.w3.org/2000/svg">
<g clip-path="url(#clip0_1910_2)">
<path d="M13.965 8.22422L10.482 8.63455L8.43746 7.45415L10.482 6.27375L13.965 6.68411C13.9842 6.68637 14.0033 6.68748 14.0222 6.68748C14.2639 6.68748 14.4727 6.50654 14.5016 6.2606C14.5329 5.99546 14.3433 5.7552 14.0781 5.72397L11.8824 5.46527L13.2503 4.67552C13.4815 4.54201 13.5607 4.24638 13.4272 4.01517C13.2937 3.78396 12.9981 3.70471 12.7669 3.83821L11.3989 4.62797L12.2728 2.59702C12.3783 2.35178 12.265 2.06745 12.0198 1.96193C11.7746 1.85643 11.4902 1.96966 11.3847 2.2149L9.99857 5.43648L7.99575 6.59282V4.23193L10.0926 1.42075C10.2522 1.20674 10.2081 0.903868 9.99415 0.744259C9.78013 0.58465 9.47726 0.628712 9.31765 0.842726L7.99575 2.61495V1.19801C7.99575 0.931027 7.7793 0.714611 7.51235 0.714611C7.2454 0.714611 7.02895 0.931027 7.02895 1.19801V2.61498L5.70702 0.842726C5.54738 0.628712 5.24448 0.584679 5.03052 0.744259C4.81651 0.903898 4.77245 1.20677 4.93206 1.42075L7.02895 4.23196V6.64093L4.94269 5.43642L3.55657 2.2149C3.45104 1.96969 3.16671 1.85643 2.92147 1.96193C2.67623 2.06745 2.56296 2.35181 2.66849 2.59702L3.54236 4.62797L2.31523 3.91948C2.08402 3.78604 1.78838 3.86523 1.65488 4.09644C1.5214 4.32765 1.60059 4.62328 1.83183 4.75679L3.05896 5.46527L0.863161 5.72397C0.598024 5.7552 0.408414 5.99546 0.439645 6.2606C0.46862 6.50654 0.677418 6.68751 0.919118 6.68748C0.937985 6.68748 0.957086 6.68637 0.976276 6.68411L4.45932 6.27375L6.50386 7.45412L4.45932 8.63455L0.976305 8.22422C0.71108 8.19302 0.470905 8.38257 0.439674 8.64773C0.408444 8.91287 0.598053 9.15314 0.86319 9.18437L3.05896 9.44306L1.83186 10.1515C1.60065 10.285 1.52143 10.5806 1.65491 10.8118C1.74444 10.9669 1.90692 11.0536 2.074 11.0536C2.156 11.0536 2.23912 11.0327 2.31523 10.9888L3.54239 10.2803L2.66849 12.3112C2.56296 12.5565 2.67626 12.8408 2.92147 12.9463C2.98173 12.9724 3.04667 12.9858 3.11231 12.9858C3.29961 12.9858 3.47788 12.8764 3.5566 12.6934L4.94275 9.47183L7.02898 8.26734V10.6282L4.93209 13.4394C4.77248 13.6534 4.81654 13.9563 5.03055 14.1159C5.11386 14.1782 5.21515 14.2119 5.31921 14.2118C5.46661 14.2118 5.61215 14.1446 5.70708 14.0174L7.02901 12.2452V13.8247C7.02901 14.0917 7.24542 14.3081 7.51241 14.3081C7.77939 14.3081 7.99581 14.0917 7.99581 13.8247V12.2452L9.31771 14.0174C9.47732 14.2315 9.78025 14.2755 9.9942 14.1158C10.2082 13.9562 10.2523 13.6534 10.0926 13.4394L7.99581 10.6282V8.31545L9.99863 9.47177L11.3848 12.6933C11.4635 12.8763 11.6417 12.9858 11.829 12.9858C11.8947 12.9858 11.9596 12.9723 12.0199 12.9463C12.2651 12.8408 12.3784 12.5564 12.2729 12.3112L11.399 10.2802L12.7669 11.07C12.8402 11.1125 12.9234 11.1349 13.0081 11.1349C13.1752 11.1349 13.3377 11.0481 13.4272 10.8931C13.5607 10.6619 13.4815 10.3662 13.2503 10.2328L11.8824 9.443L14.0782 9.18431C14.3433 9.15308 14.5329 8.91278 14.5017 8.64768C14.4704 8.38263 14.2304 8.19299 13.965 8.22422Z" fill="#59CAFC"/>
</g>
<defs>
<clipPath id="clip0_1910_2">
<rect width="15" height="15" fill="white"/>
</clipPath>
</defs>
</svg>
