<svg width="10" height="10" fill="none" xmlns="http://www.w3.org/2000/svg"><g clip-path="url(#clip0_1910_32)"><path d="M9.845 4.664H8.793l.826-.826a.11.11 0 00.032-.076.11.11 0 00-.032-.078l-.322-.322a.11.11 0 00-.154 0l-1.3 1.302H5.811l1.436-1.436h1.84c.06 0 .108-.048.108-.108v-.456a.106.106 0 00-.032-.077.105.105 0 00-.076-.032H7.92l.743-.743a.11.11 0 00.032-.076.11.11 0 00-.032-.077l-.322-.322a.11.11 0 00-.153 0l-.744.744V.913a.106.106 0 00-.032-.077.105.105 0 00-.077-.032H6.88a.108.108 0 00-.108.108v1.84L5.336 4.188v-2.03L6.637.857a.11.11 0 000-.154l-.32-.322a.108.108 0 00-.154 0l-.826.826V.155a.108.108 0 00-.109-.108h-.454a.108.108 0 00-.109.108v1.052L3.838.381a.11.11 0 00-.154 0l-.322.322a.11.11 0 000 .154l1.301 1.3v2.031L3.228 2.752V.912A.108.108 0 003.12.805h-.456a.105.105 0 00-.077.032.108.108 0 00-.032.077V2.08l-.743-.744a.11.11 0 00-.153 0l-.322.322a.11.11 0 000 .154l.743.743H.913a.108.108 0 00-.11.108v.456c0 .029.012.056.033.076.02.021.048.032.077.032h1.84l1.435 1.437h-2.03L.857 3.363a.11.11 0 00-.154 0l-.322.321a.109.109 0 000 .154l.826.826H.155c-.06 0-.108.05-.108.109v.454c0 .06.048.109.108.109h1.052l-.826.825a.11.11 0 00-.032.077c0 .028.011.057.032.077l.322.322c.021.022.05.032.077.032.027 0 .055-.01.076-.032l1.302-1.301h2.03L2.752 6.772H.912a.108.108 0 00-.108.108v.455a.108.108 0 00.109.109H2.08l-.743.743a.11.11 0 000 .154l.322.322a.108.108 0 00.153 0l.743-.744v1.168a.11.11 0 00.109.108h.455c.06 0 .108-.049.108-.11V7.249l1.435-1.436v2.03l-1.3 1.301a.11.11 0 000 .154l.322.322c.02.02.047.031.076.031.03 0 .057-.01.077-.031l.825-.826v1.052c0 .06.049.108.11.108h.454c.06 0 .108-.05.108-.108V8.793l.826.826c.02.02.048.031.077.031.029 0 .056-.01.076-.031l.322-.322a.11.11 0 000-.154l-1.3-1.3V5.81l1.437 1.436v1.84c0 .06.048.108.108.108h.455c.03 0 .057-.01.077-.03a.109.109 0 00.032-.078V7.92l.744.743a.108.108 0 00.153 0l.32-.322a.108.108 0 000-.153l-.743-.743h1.167a.11.11 0 00.109-.11v-.454a.108.108 0 00-.109-.108H7.248L5.812 5.336h2.03l1.301 1.3c.021.023.05.033.077.033.027 0 .055-.01.076-.032l.322-.322a.108.108 0 000-.154l-.825-.825h1.052c.06 0 .108-.049.108-.109v-.454a.108.108 0 00-.108-.109z" fill="#40C0E7"/></g><defs><clipPath id="clip0_1910_32"><path fill="#fff" d="M0 0h10v10H0z"/></clipPath></defs></svg>