<svg width="17" height="17" fill="none" xmlns="http://www.w3.org/2000/svg"><path d="M9.655 1.292v.331l1.03-1.03c.258-.257.532-.44.771-.529A.41.41 0 0011.228 0c-.285 0-.69.227-1.054.593l-.524.524c.003.058.006.117.006.175zM8.43 1.62v-.328c0-.478.115-.98.357-1.19A.384.384 0 008.533 0h-.005c-.38 0-.57.548-.604 1.114l.507.506zm3.64-.898c-.05.115-.11.224-.182.326a2.523 2.523 0 00-.126.813v2.205c0 .106.007.208.017.308L9.656 6.497v.513l2.635-2.636a3.134 3.134 0 01-.016-.308V1.861c0-.476.114-.977.354-1.187a.383.383 0 00-.257-.104.406.406 0 00-.302.152zM4.629 5.256h-.19l2.656 2.657h.513L4.933 5.238a2.714 2.714 0 01-.305.017M5.752 1.09c.099.157.226.318.376.468l1.56 1.56a3.2 3.2 0 00.23.203v3.167l.513.514v-3.68a2.79 2.79 0 01-.23-.205l-1.56-1.56A2.44 2.44 0 016.14.866c-.17-.38-.06-.57.021-.652a.414.414 0 01.06-.047.824.824 0 00-.281-.064.4.4 0 00-.292.111c-.06.06-.138.183-.1.4a1.3 1.3 0 01.205.477zm7.41 10.643c.102-.01.204-.017.305-.017h-.323l.018.017zm-.008-6.486l-.013.014h.474c-.148 0-.297-.011-.44-.034l-.008.008-.013.012zm.578 2.666h.513a3.26 3.26 0 01.205-.229l1.56-1.56c.256-.256.53-.438.77-.528a.415.415 0 00-.23-.063c-.284 0-.688.227-1.053.592l-1.559 1.559a2.868 2.868 0 00-.206.23zm2.378 3.121l-1.559-1.558a2.96 2.96 0 01-.287-.336h-.514c.087.117.185.23.289.336l1.558 1.558c.365.365.77.592 1.054.592a.413.413 0 00.23-.063c-.24-.089-.514-.272-.77-.529zm-11.19.715l.005-.007.015-.015 2.587-2.586h-.513l-2.575 2.574h.039c.147 0 .298.011.441.034zm8.577-8.579l.232-.231c.256-.257.53-.44.77-.53a.415.415 0 00-.23-.064c-.213 0-.493.129-.772.345v.48zM.788 11.46a.43.43 0 01-.061-.048c-.298-.297.042-.906.481-1.345l.926-.925h-.328c-.622 0-1.293-.192-1.293-.612l.002-.002-.002-.002c0-.42.67-.612 1.293-.612h.331l-1.03-1.03c-.441-.44-.78-1.048-.482-1.345a.419.419 0 01.061-.047.844.844 0 00-.283-.063c-.149 0-.24.06-.29.11-.298.297.04.905.48 1.345l1.031 1.03h-.332c-.622 0-1.291.192-1.291.612v.004c0 .42.67.612 1.292.612h.328l-.925.925c-.44.44-.778 1.048-.482 1.345.05.05.142.11.292.11a.857.857 0 00.282-.063zm7.642 4.302v-.331l-.506.506c.033.566.224 1.117.604 1.117h.002c.097 0 .181-.04.254-.103-.242-.209-.356-.71-.356-1.189m-2.374 1.181c-.296-.297.042-.905.482-1.346l1.56-1.558c.109-.11.221-.203.334-.284V9.97l-.513.513v3.27a2.781 2.781 0 00-.335.285l-1.559 1.558c-.44.441-.78 1.05-.482 1.346a.4.4 0 00.292.111.828.828 0 00.282-.064.364.364 0 01-.06-.047m4.527-.582l-.925-.925v.327c0 .06-.004.12-.006.179l.418.419c.365.365.769.592 1.054.592a.41.41 0 00.23-.064 2.268 2.268 0 01-.771-.528zm1.692-1.102v-2.205c0-.147.012-.298.035-.44l-.01-.009-.01-.011L9.656 9.96v.513l2.119 2.119.01.011.01.009a2.922 2.922 0 00-.034.44v2.205c0 .288.043.582.13.82.02.038.04.075.056.11s.027.066.038.097c.096.16.224.264.387.264a.38.38 0 00.256-.104c-.24-.21-.354-.711-.354-1.188zm1.456-1.223l-.233-.234v.48c.28.218.56.347.774.347a.406.406 0 00.23-.064c-.24-.089-.514-.272-.77-.529zM1.91 5.256h.511c-.621 0-1.29-.19-1.291-.61 0-.42.67-.61 1.291-.61H1.91c-.622 0-1.292.19-1.292.61s.67.61 1.292.61zm2.455-2.321l.235.234V1.712c0-.477.114-.979.355-1.188A.384.384 0 004.697.42c-.419 0-.61.669-.61 1.291v.977a3.1 3.1 0 01.278.247zm.231 12.178v-1.308l-.232.231a2.87 2.87 0 01-.282.25v.827c0 .623.192 1.292.612 1.292a.39.39 0 00.255-.104c-.24-.21-.353-.711-.353-1.188zM3.217 4.035h.512l-.23-.231c-.354-.353-.635-.811-.583-1.132a.208.208 0 01.01-.047.354.354 0 01.087-.162c.002-.002.002 0 .003-.005 0 0 .002-.001 0-.003h.001a.371.371 0 01.062-.048.866.866 0 00-.283-.063c-.15 0-.242.06-.292.111-.001.002 0 .002-.004.003l-.002.005a.354.354 0 00-.087.162c-.005.014-.007.03-.01.047-.052.321.23.78.581 1.132l.232.231m-2.232 8.29c0-.42.67-.61 1.292-.61H1.76c-.622 0-1.293.19-1.293.61s.67.61 1.293.61h.513c-.623 0-1.292-.19-1.292-.61zm2.036 2.194v-.002s-.003-.001 0-.002a.363.363 0 01-.077-.117c-.001 0 0-.005-.004-.008a.436.436 0 01-.028-.144v-.001a.84.84 0 01.087-.381c.1-.224.279-.47.502-.694l.235-.234H3.22l-.234.234c-.224.224-.402.47-.503.694a.835.835 0 00-.087.38v.002a.5.5 0 00.032.152.34.34 0 00.079.119v.002a.4.4 0 00.293.11c.084 0 .18-.025.283-.063a.434.434 0 01-.062-.047" fill="#1C679A"/></svg>