<svg width="15" height="15" fill="none" xmlns="http://www.w3.org/2000/svg"><g clip-path="url(#clip0_1910_2)"><path d="M13.965 8.224l-3.483.41-2.045-1.18 2.045-1.18 3.483.41a.483.483 0 10.113-.96l-2.196-.259 1.368-.79a.483.483 0 00-.483-.837l-1.368.79.874-2.031a.483.483 0 00-.888-.382L9.999 5.436 7.996 6.593V4.232l2.097-2.811a.483.483 0 00-.775-.578L7.996 2.615V1.198a.483.483 0 00-.967 0v1.417L5.707.843a.483.483 0 00-.775.578L7.03 4.232v2.409L4.943 5.436 3.557 2.215a.483.483 0 00-.889.382l.874 2.031-1.227-.709a.483.483 0 00-.483.838l1.227.708-2.196.259a.483.483 0 10.113.96l3.483-.41 2.045 1.18-2.045 1.18-3.483-.41a.483.483 0 10-.113.96l2.196.26-1.227.707a.483.483 0 10.483.838l1.227-.709-.874 2.031a.483.483 0 00.889.382l1.386-3.221 2.086-1.205v2.361L4.932 13.44a.483.483 0 10.775.578l1.322-1.772v1.58a.483.483 0 10.967 0v-1.58l1.322 1.772a.483.483 0 10.775-.578l-2.097-2.81V8.314l2.003 1.157 1.386 3.221a.483.483 0 10.888-.382l-.874-2.03 1.368.789a.48.48 0 00.66-.177.483.483 0 00-.177-.66l-1.368-.79 2.196-.259a.483.483 0 00-.113-.96z" fill="#59CAFC"/></g><defs><clipPath id="clip0_1910_2"><path fill="#fff" d="M0 0h15v15H0z"/></clipPath></defs></svg>